HIERARCHY
ROOT joint_Root
{
  OFFSET 0 0 0
  CHANNELS 6 Xposition Yposition Zposition Zrotation Xrotation Yrotation
  JOINT Hips
  {
    OFFSET 0 93.9241 -3
    CHANNELS 6 Xposition Yposition Zposition Zrotation Xrotation Yrotation
    JOINT Spine
    {
      OFFSET 15.7357 0 0
      CHANNELS 6 Xposition Yposition Zposition Zrotation Xrotation Yrotation
      JOINT Chest
      {
        OFFSET 8.98455 -0.406207 0
        CHANNELS 6 Xposition Yposition Zposition Zrotation Xrotation Yrotation
        JOINT Neck
        {
          OFFSET 16.3773 0 0
          CHANNELS 6 Xposition Yposition Zposition Zrotation Xrotation Yrotation
          JOINT Head
          {
            OFFSET 6.45672 0 0
            CHANNELS 6 Xposition Yposition Zposition Zrotation Xrotation Yrotation
            End Site
            {
              OFFSET 0 0 0
            }
          }
        }
        JOINT Shoulder_L
        {
          OFFSET 12.9942 -0.242716 4.98039
          CHANNELS 6 Xposition Yposition Zposition Zrotation Xrotation Yrotation
          JOINT UpperArm_L
          {
            OFFSET 5.34809 0 0
            CHANNELS 6 Xposition Yposition Zposition Zrotation Xrotation Yrotation
            JOINT LowerArm_L
            {
              OFFSET 24.3286 1.87007e-05 0
              CHANNELS 6 Xposition Yposition Zposition Zrotation Xrotation Yrotation
              JOINT Hand_L
              {
                OFFSET 22.2916 0 0
                CHANNELS 6 Xposition Yposition Zposition Zrotation Xrotation Yrotation
                End Site
                {
                  OFFSET 0 0 0
                }
              }
            }
          }
        }
        JOINT Shoulder_R
        {
          OFFSET 12.9945 -0.242716 -4.98039
          CHANNELS 6 Xposition Yposition Zposition Zrotation Xrotation Yrotation
          JOINT UpperArm_R
          {
            OFFSET -5.34813 0 0
            CHANNELS 6 Xposition Yposition Zposition Zrotation Xrotation Yrotation
            JOINT LowerArm_R
            {
              OFFSET -24.3289 0.000322201 0
              CHANNELS 6 Xposition Yposition Zposition Zrotation Xrotation Yrotation
              JOINT Hand_R
              {
                OFFSET -22.2915 -0.000108084 0
                CHANNELS 6 Xposition Yposition Zposition Zrotation Xrotation Yrotation
                End Site
                {
                  OFFSET 0 0 0
                }
              }
            }
          }
        }
      }
    }
    JOINT UpperLeg_L
    {
      OFFSET -2.19248 -6.46944 0
      CHANNELS 6 Xposition Yposition Zposition Zrotation Xrotation Yrotation
      JOINT LowerLeg_L
      {
        OFFSET 39.0811 0 -1.23785e-05
        CHANNELS 6 Xposition Yposition Zposition Zrotation Xrotation Yrotation
        JOINT Foot_L
        {
          OFFSET 40.9854 0 -1.26872e-05
          CHANNELS 6 Xposition Yposition Zposition Zrotation Xrotation Yrotation
          JOINT Toes_L
          {
            OFFSET 11.7543 0 0
            CHANNELS 6 Xposition Yposition Zposition Zrotation Xrotation Yrotation
            End Site
            {
              OFFSET 0 0 0
            }
          }
        }
      }
    }
    JOINT UpperLeg_R
    {
      OFFSET -2.19251 6.46944 0
      CHANNELS 6 Xposition Yposition Zposition Zrotation Xrotation Yrotation
      JOINT LowerLeg_R
      {
        OFFSET -39.0811 -0.00228153 -0.0401928
        CHANNELS 6 Xposition Yposition Zposition Zrotation Xrotation Yrotation
        JOINT Foot_R
        {
          OFFSET -40.9854 0 0
          CHANNELS 6 Xposition Yposition Zposition Zrotation Xrotation Yrotation
          JOINT Toes_R
          {
            OFFSET -11.7543 0 0
            CHANNELS 6 Xposition Yposition Zposition Zrotation Xrotation Yrotation
            End Site
            {
              OFFSET 0 0 0
            }
          }
        }
      }
    }
  }
}
MOTION
Frames:	4
Frame Time:	0.0333333
0 0 0 0 0 -0 -5.00415 84.4359 -22.7712 84.7985 -0.803675 -2.03015 15.7357 5.1072e-06 -5.51765e-07 98.762 82.5996 -97.7346 8.98455 -0.406207 -4.3199e-07 6.84674 2.2389 1.91882 16.3773 -1.3905e-06 -6.99897e-07 -8.96841 -0.893468 -1.49287 6.45672 -1.25837e-06 -1.02172e-07 -1.6845 -4.33772 -2.85245 12.9942 -0.242716 4.98039 -89.8934 -3.32294 -103.159 5.34809 -7.22636e-06 -6.2814e-07 -75.444 -55.2835 -48.4268 24.3286 1.87007e-05 4.90208e-06 -73.1925 -74.7607 -73.7518 22.2916 -9.88446e-07 4.63217e-06 -0.835774 5.04241 6.40277 12.9945 -0.242716 -4.98039 89.9044 -3.76621 -106.457 -5.34813 -1.25947e-06 -3.79883e-06 -71.7442 -53.5349 -41.4162 -24.3289 0.000322201 -8.65921e-06 -28.7015 -68.5702 -30.454 -22.2915 -0.000108084 -4.47941e-06 16.1068 5.19334 2.88473 -2.19248 -6.46944 -1.22534e-07 -175.226 7.2982 -30.3852 39.0811 -6.73843e-06 -1.23785e-05 -0.733045 0.0824674 82.7284 40.9854 -6.48686e-06 -1.26872e-05 12.4689 -16.5121 -46.8116 11.7543 -2.30145e-07 3.05095e-06 0.392474 -0.470824 -21.0444 -2.19251 6.46944 -1.45247e-06 -167.329 2.14723 161.34 -39.0811 -0.00228153 -0.0401928 -0.209522 0.2134 49.8291 -40.9854 7.72618e-06 5.99936e-06 1.86847 -12.5011 -84.123 -11.7543 -5.6619e-06 -5.58687e-06 -0.143115 -0.0321288 -16.5076 
0 0 0 0 0 -0 -4.78643 86.4389 -12.0773 88.9605 5.31787 -3.18142 15.7357 5.1072e-06 -5.51765e-07 97.9764 83.5371 -98.294 8.98455 -0.406207 -4.3199e-07 5.04163 1.79748 -0.713689 16.3773 -1.3905e-06 -6.99897e-07 -7.9068 -3.66654 -1.70495 6.45672 -1.25837e-06 -1.02172e-07 -0.864937 -7.11152 -1.84139 12.9942 -0.242716 4.98039 -89.9382 -4.29063 -104.174 5.34809 -7.22636e-06 -6.2814e-07 -76.4422 -51.7389 -50.6317 24.3286 1.87007e-05 4.90208e-06 -69.4788 -74.7568 -70.1433 22.2916 -9.88446e-07 4.63217e-06 -0.407965 5.05313 6.16837 12.9945 -0.242716 -4.98039 90.0263 -3.91286 -104.614 -5.34813 -1.25947e-06 -3.79883e-06 -71.0317 -56.7952 -39.6447 -24.3289 0.000322201 -8.65921e-06 -29.8213 -70.332 -31.3179 -22.2915 -0.000108084 -4.47941e-06 14.6423 5.20484 2.5963 -2.19248 -6.46944 -1.22534e-07 -178.165 11.4237 -36.3373 39.0811 -6.73843e-06 -1.23785e-05 -0.469427 0.132469 73.0963 40.9854 -6.48686e-06 -1.26872e-05 9.17621 -17.7007 -53.9743 11.7543 -2.30145e-07 3.05095e-06 0.369531 -0.441144 -20.7711 -2.19251 6.46944 -1.45247e-06 -171.467 7.94615 170.755 -39.0811 -0.00228153 -0.0401928 0.0359839 -0.00381419 41.5225 -40.9854 7.72618e-06 5.99936e-06 2.55893 -13.3884 -78.2725 -11.7543 -5.6619e-06 -5.58687e-06 -0.97074 -2.1806 -24.8508 
0 0 0 0 0 -0 -4.25362 88.8656 -1.7391 92.588 8.71046 -5.7726 15.7357 5.1072e-06 -5.51765e-07 102.626 84.597 -104.154 8.98455 -0.406207 -4.3199e-07 2.81493 2.4258 -3.11163 16.3773 -1.3905e-06 -6.99897e-07 -7.28722 -5.39783 -1.94419 6.45672 -1.25837e-06 -1.02172e-07 0.554945 -9.40819 -1.70086 12.9942 -0.242716 4.98039 -89.9223 -5.0607 -104.12 5.34809 -7.22636e-06 -6.2814e-07 -78.2186 -49.0918 -52.8989 24.3286 1.87007e-05 4.90208e-06 -54.4098 -72.0909 -55.7458 22.2916 -9.88446e-07 4.63217e-06 2.01792 5.05748 6.0714 12.9945 -0.242716 -4.98039 90.1018 -4.10648 -103.58 -5.34813 -1.25947e-06 -3.79883e-06 -68.7878 -59.3181 -37.2518 -24.3289 0.000322201 -8.65921e-06 -27.873 -71.3009 -29.1757 -22.2915 -0.000108084 -4.47941e-06 14.698 5.23742 1.7631 -2.19248 -6.46944 -1.22534e-07 177.885 11.1509 -38.9226 39.0811 -6.73843e-06 -1.23785e-05 -0.244914 0.157606 55.8434 40.9854 -6.48686e-06 -1.26872e-05 7.70689 -16.3769 -56.9411 11.7543 -2.30145e-07 3.05095e-06 0.357303 -0.425447 -20.6262 -2.19251 6.46944 -1.45247e-06 -174.825 9.81495 176.501 -39.0811 -0.00228153 -0.0401928 -0.00647558 0.0470707 35.3344 -40.9854 7.72618e-06 5.99936e-06 5.61769 -15.5257 -63.1437 -11.7543 -5.6619e-06 -5.58687e-06 1.92889 -2.80305 -35.5637 
0 0 0 0 0 -0 -3.7757 90.6152 8.59426 93.5424 9.59598 -7.13336 15.7357 5.1072e-06 -5.51765e-07 111.295 85.2227 -113.14 8.98455 -0.406207 -4.3199e-07 1.19934 3.57411 -3.72627 16.3773 -1.3905e-06 -6.99897e-07 -7.03153 -5.75897 -2.14107 6.45672 -1.25837e-06 -1.02172e-07 1.84354 -10.9709 -1.69369 12.9942 -0.242716 4.98039 -89.8073 -5.80971 -103.098 5.34809 -7.22636e-06 -6.2814e-07 -78.2796 -47.1223 -52.7929 24.3286 1.87007e-05 4.90208e-06 -52.5952 -70.353 -54.2398 22.2916 -9.88446e-07 4.63217e-06 1.59912 5.0499 6.23693 12.9945 -0.242716 -4.98039 90.089 -4.67947 -103.908 -5.34813 -1.25947e-06 -3.79883e-06 -66.4292 -61.8118 -34.6682 -24.3289 0.000322201 -8.65921e-06 -27.3893 -71.751 -28.6138 -22.2915 -0.000108084 -4.47941e-06 13.9599 5.25386 1.33062 -2.19248 -6.46944 -1.22534e-07 174.657 7.10811 -36.2704 39.0811 -6.73843e-06 -1.23785e-05 -0.0717874 0.101344 33.9318 40.9854 -6.48686e-06 -1.26872e-05 3.20448 -12.9119 -60.9208 11.7543 -2.30145e-07 3.05095e-06 0.374911 -0.448063 -20.8349 -2.19251 6.46944 -1.45247e-06 -174.997 6.95058 179.204 -39.0811 -0.00228153 -0.0401928 -0.0941025 0.174842 33.8088 -40.9854 7.72618e-06 5.99936e-06 9.87474 -16.7283 -41.9768 -11.7543 -5.6619e-06 -5.58687e-06 2.49412 -4.30557 -44.4751 
